<svg width="16" height="16" viewBox="0 0 16 16" fill="none" xmlns="http://www.w3.org/2000/svg">
<path id="icon_search" fill-rule="evenodd" clip-rule="evenodd" d="M15.6064 13.7864L12.0037 10.1673C13.6872 7.62546 13.4178 4.15781 11.1787 1.91899C8.61974 -0.639663 4.46139 -0.639663 1.91924 1.91899C-0.639746 4.47764 -0.639746 8.63545 1.91924 11.1773C4.15835 13.4161 7.62645 13.6854 10.1686 12.0021L13.7882 15.6213C14.2933 16.1262 15.1182 16.1262 15.6233 15.6213C16.1283 15.1163 16.1283 14.2914 15.6064 13.7864ZM3.73747 9.34245C2.18861 7.79379 2.18861 5.28564 3.73747 3.73698C5.28633 2.18832 7.79481 2.18832 9.34367 3.73698C10.8925 5.28564 10.8925 7.79379 9.34367 9.34245C7.79481 10.8911 5.28633 10.8911 3.73747 9.34245Z" fill="#3F6DD6"/>
</svg>
